<?xml version="1.0" encoding="utf-8"?>
<!-- Generator: Adobe Illustrator 25.0.0, SVG Export Plug-In . SVG Version: 6.00 Build 0)  -->
<svg version="1.1" id="Capa_1" xmlns="http://www.w3.org/2000/svg" xmlns:xlink="http://www.w3.org/1999/xlink" x="0px" y="0px"
	 viewBox="0 0 1080 1080" style="enable-background:new 0 0 1080 1080;" xml:space="preserve">
<style type="text/css">
	.st0{display:none;fill:#878888;}
	.st1{fill:#878888;}
</style>
<path id="FootonMars" class="st0" d="M219.86,578.15c0-5.26-1.95-7.07-5.86-7.07c-10.83,0-15.34,32.48-15.34,37.89
	c0,4.82,1.65,7.07,5.87,7.07C215.35,616.05,219.86,583.42,219.86,578.15 M304.37,578.15c0-5.26-1.96-7.07-5.86-7.07
	c-10.83,0-15.34,32.48-15.34,37.89c0,4.82,1.65,7.07,5.87,7.07C299.86,616.05,304.37,583.42,304.37,578.15 M382.11,554.85h14.13
	l-7.07,17.14h-10.82l-6.62,31.27c-0.75,3.31-1.05,5.87-1.05,7.82c0,4.36,1.96,5.42,6.46,5.42c2.41,0,4.97-0.6,6.92-1.5l-0.15,15.04
	c-7.22,3.15-14.13,4.51-19.4,4.51c-13.99,0-22.1-2.71-22.1-13.68c0-1.96,0.3-4.21,0.75-6.62l9.02-42.24h-6.31l3.76-17.14h6.31
	c1.66-7.67,3.31-14.74,4.97-19.25l26.76-3.91C385.12,539.96,383.61,547.63,382.11,554.85 M332.03,580.41
	c0,20.3-11.28,53.98-47.51,53.98c-18.34,0-28.72-10.07-28.72-27.97c0-19.99,10.82-53.52,47.51-53.52
	C319.56,552.89,332.03,560.86,332.03,580.41 M247.53,580.41c0,20.3-11.28,53.98-47.51,53.98c-18.34,0-28.72-10.07-28.72-27.97
	c0-19.99,10.82-53.52,47.51-53.52C235.05,552.89,247.53,560.86,247.53,580.41 M181.22,527.63l-6.61,22.1h-29.02l-3.76,17.59h23.61
	l-4.51,21.35h-23.46l-9.32,43.75h-26.91l22.25-104.8H181.22z M413.53,561.96c2.38-5.77,1.73-12.34-1.75-17.52
	c-1.71-2.55-3.99-4.61-6.61-6.03c0.12-0.41,0.24-0.81,0.37-1.21c1.89-6.13,0.51-12.8-3.66-17.67c-4.17-4.87-10.55-7.27-16.9-6.34
	l-26.77,3.91c-6.79,0.99-12.49,5.62-14.85,12.06c-0.99,2.7-1.92,5.9-2.81,9.34c-2.38,1.32-4.44,3.17-6.05,5.38
	c-7.99-6.23-18.61-9.69-31.19-9.69c-19.22,0-34.38,7.11-45.32,18.14c-8.1-11.46-21.76-18.14-39.19-18.14c-7.65,0-14.65,1.15-21,3.2
	l1.32-4.41c1.7-5.66,0.61-11.79-2.91-16.52c-3.53-4.74-9.09-7.53-15-7.53h-57.74c-8.83,0-16.45,6.17-18.29,14.81l-22.25,104.8
	c-1.17,5.52,0.21,11.27,3.76,15.65c3.55,4.39,8.89,6.93,14.52,6.93h26.92c8.82,0,16.44-6.16,18.28-14.8l6.17-28.96h0.05
	c0.42,27.8,18.9,45.71,47.38,45.71c17.91,0,33.62-6.44,45.3-18.34c8.1,11.59,21.77,18.34,39.21,18.34
	c16.81,0,31.68-5.68,43.11-16.23c2.64,4.74,6.58,8.62,11.68,11.39c8.15,4.42,17.75,4.98,25.21,4.98c8.38,0,17.93-2.15,26.89-6.07
	c6.74-2.95,11.13-9.57,11.2-16.93l0.15-15.04c0.06-6.41-3.15-12.4-8.54-15.88c-0.73-0.47-1.5-0.89-2.27-1.26l1.67-7.89
	c5.71-1.4,10.54-5.44,12.85-11.03L413.53,561.96z M487.52,578.15c0-5.26-1.96-7.07-5.87-7.07c-10.83,0-15.34,32.48-15.34,37.89
	c0,4.82,1.65,7.07,5.87,7.07C483.01,616.05,487.52,583.42,487.52,578.15 M601.35,568.23c0,2.25-0.3,4.51-0.75,6.91l-12.18,57.28
	h-26.16l10.52-49.61c0.3-1.8,0.6-3.16,0.6-4.36c0-3.01-1.21-4.36-4.36-4.36c-4.21,0-7.52,2.1-10.83,7.22l-10.98,51.12h-26.16
	l10.37-48.86c1.65-8.12,2.71-13.98,2.71-19.4c0-2.4-0.3-4.51-0.6-6.92l23.16-4.36c0.6,2.56,1.2,5.26,1.35,8.42
	c6.02-5.26,15.04-8.42,23.61-8.42C596.99,552.89,601.35,559.8,601.35,568.23 M515.19,580.41c0,20.3-11.28,53.98-47.52,53.98
	c-18.34,0-28.72-10.07-28.72-27.97c0-19.99,10.82-53.52,47.51-53.52C502.71,552.89,515.19,560.86,515.19,580.41 M618.98,578.59
	c0.73-3.89,1.07-7.19,1.07-10.37c0-15.7-10.05-34.03-38.39-34.03c-5.37,0-10.78,0.81-15.93,2.33c-3.68-2.03-8.05-2.84-12.49-2.01
	l-23.15,4.36c-4.41,0.83-8.17,3.16-10.85,6.37c-8.15-7.06-19.32-11.05-32.76-11.05c-43.46,0-66.21,36.33-66.21,72.22
	c0,28.35,18.61,46.66,47.41,46.66c14.04,0,26.72-3.96,37.17-11.4c0.5,0.88,1.05,1.73,1.69,2.52c3.55,4.39,8.89,6.93,14.53,6.93
	h26.17c2.66,0,5.21-0.56,7.52-1.58c2.34,1.03,4.9,1.58,7.52,1.58h26.17c8.83,0,16.45-6.17,18.29-14.8l12.18-57.29
	C618.92,578.88,618.95,578.74,618.98,578.59 M818.79,607.32l7.22-33.99c-0.9-0.75-2.25-1.05-3.15-1.05c-1.96,0-5.71-0.15-9.47,4.21
	c-5.56,6.46-8.87,21.65-8.87,31.27c0,5.26,1.5,7.52,5.11,7.52C812.77,615.29,818.18,609.87,818.79,607.32 M995.02,559.95
	l-11.58,16.24c-6.16-3.46-12.93-5.27-18.19-5.27c-1.65,0-7.97,0.45-7.82,6.02c0,2.1,1.81,3.76,8.28,5.41l6.91,1.8
	c10.08,2.56,16.09,7.37,16.09,18.65c0,14.58-13.38,31.57-41.2,31.57c-11.13,0-22.71-3.61-32.33-9.62l12.03-17.29
	c4.81,3.76,14.74,8.12,23.76,8.12c4.36,0,9.47-2.1,9.47-6.62c0-3.76-2.56-4.81-10.52-6.61l-6.47-1.51
	c-10.37-2.4-15.63-9.02-15.63-18.94c0-14.59,12.78-29.02,37.89-29.02C976.67,552.89,985.09,555.14,995.02,559.95 M926,554.85
	l-10.52,21.2c-2.4-1.51-4.21-2.11-7.22-2.11c-4.51,0-7.37,2.41-10.68,7.37l-10.98,51.12h-26.16l10.07-47.21
	c2.86-13.38,3.91-20.15,2.25-27.97l23.31-4.36c0.89,2.86,1.35,5.56,1.5,8.87c3.76-4.21,10.83-9.17,19.1-9.17
	C920.43,552.59,922.69,553.34,926,554.85 M856.52,557.55c-2.25,5.41-4.51,14.74-5.86,21.2l-5.86,27.96
	c-0.6,2.56-0.45,7.97,3.01,11.73l-21.2,16.99c-3.16-1.66-5.42-6.32-5.86-9.18c-3.46,3.61-11.13,8.58-20.15,8.58
	c-15.8,0-22.41-9.92-22.41-26.47s6.61-33.68,16.69-43.75c8.87-8.87,18.34-11.73,32.02-11.73
	C837.58,552.89,850.81,554.7,856.52,557.55 M773.07,527.63l-12.63,104.8h-25.71l6.46-42.24c1.06-6.62,1.81-12.03,3.61-21.05h-0.15
	c-3.01,8.87-4.82,14.14-7.67,19.7l-22.1,43.6h-23.01l-2.1-42.4c-0.3-5.86-0.15-11.73,1.05-21.05h-0.15
	c-1.96,9.32-3.31,15.03-5.12,21.65l-10.98,41.8h-27.36l32.47-104.8h32.48l1.36,41.5c0.15,5.87,0.15,11.43-0.75,19.85h0.15
	c2.71-7.97,4.81-13.08,8.72-21.35l19.1-40H773.07z M1013.14,555.33c-1.36-5.33-5.01-9.79-9.96-12.19
	c-12.92-6.27-24.13-8.94-37.48-8.94c-11.06,0-20.54,2.14-28.41,5.76c-1.1-0.83-2.28-1.55-3.55-2.13
	c-5.19-2.36-10.08-3.92-17.05-3.92c-4.25,0-8.53,0.71-12.68,2.06c-3.44-1.61-7.39-2.19-11.36-1.45l-23.31,4.36
	c-1.76,0.33-3.44,0.92-4.99,1.71c-12.98-6.18-34.94-6.38-37.43-6.38c-10.75,0-24.14,1.35-37.04,10.33l1.76-14.66
	c0.64-5.31-1.02-10.64-4.57-14.64c-3.55-4-8.64-6.29-13.98-6.29h-32.33c-5.58,0-10.78,2.49-14.28,6.63
	c-3.43-4.07-8.57-6.63-14.29-6.63H679.7c-8.19,0-15.43,5.33-17.86,13.16l-32.48,104.8c-1.76,5.67-0.71,11.85,2.81,16.62
	c3.52,4.78,9.11,7.6,15.05,7.6h27.37c3.09,0,6.04-0.76,8.64-2.12c2.59,1.36,5.53,2.12,8.65,2.12h23.01c3.58,0,7-1.02,9.92-2.85
	c2.94,1.84,6.37,2.85,9.92,2.85h25.71c5.48,0,10.45-2.38,13.89-6.2c7.54,6.05,17.05,8.61,26.25,8.61c5.5,0,10.67-1.04,15.34-2.7
	c0.65,0.41,1.32,0.8,2.01,1.17c2.73,1.43,5.71,2.14,8.66,2.14c4.17,0,8.31-1.4,11.7-4.11l7.49-6c0.04,0.06,0.08,0.11,0.12,0.16
	c3.54,4.39,8.89,6.94,14.53,6.94h26.17c7.65,0,14.39-4.64,17.25-11.5c0.45,0.35,0.92,0.68,1.41,0.99
	c12.86,8.04,27.86,12.47,42.24,12.47c38.9,0,59.89-25.9,59.89-50.28c0-5.52-1.02-13.23-5.48-20.33l8.32-11.67
	C1013.44,566.32,1014.5,560.66,1013.14,555.33"/>
<path class="st1" d="M682.6,667.23h125.65l9.45-45.5h-70.95l4.73-22.13h62.49l8.7-42.27h-62.24l4.72-22.13h68.96l9.2-45.5H719.65
	L682.6,667.23z M672.2,599.6l8.7-42.27h-62.24l4.72-22.13h68.96l9.2-45.5H577.88l-37.05,177.54h125.65l9.45-45.5h-70.95l4.73-22.13
	H672.2z M516.8,489.69h-54.7l-36.8,177.54h101.01l8.84-45.5h-45.7L516.8,489.69z M206.47,603.82l27.6-53.21h0.5l5.97,53.21H206.47z
	 M219.9,489.69L219.9,489.69L193.2,535.2h0.37L117.2,667.23h55.7l13.68-25.36h57.94l2.98,25.36h53.71l-27.6-177.54H219.9z
	 M446.06,489.69H302.04l-9.45,45.5h49.23l-27.35,132.03h54.71l27.35-132.03h40.69L446.06,489.69z M859.22,489.69l-9.45,45.5h49.23
	l-27.35,132.03h54.71l27.35-132.03h43.2l8.85-45.5H859.22z"/>
</svg>
