<?xml version="1.0" encoding="UTF-8"?>
<!-- Generator: Adobe Illustrator 22.1.0, SVG Export Plug-In . SVG Version: 6.00 Build 0)  -->
<svg version="1.1" id="Capa_1" xmlns="http://www.w3.org/2000/svg" xmlns:xlink="http://www.w3.org/1999/xlink" x="0px" y="0px" viewBox="0 0 600.7 100.6" style="enable-background:new 0 0 600.7 100.6;" xml:space="preserve">
<style type="text/css">
	.st0{fill:#da291c;}
</style>
<g>
	<defs>
		<rect id="SVGID_1_" width="841.9" height="595.3"/>
	</defs>
	<clipPath id="SVGID_2_">
		<use xlink:href="#SVGID_1_" style="overflow:visible;"/>
	</clipPath>
</g>
<path class="st0" d="M91.3,47.2c0-3.4-1.2-4.5-3.7-4.5c-6.9,0-9.8,20.7-9.8,24.1c0,3.1,1.1,4.5,3.7,4.5  C88.4,71.3,91.3,50.5,91.3,47.2 M145.1,47.2c0-3.4-1.2-4.5-3.7-4.5c-6.9,0-9.8,20.7-9.8,24.1c0,3.1,1.1,4.5,3.7,4.5  C142.2,71.3,145.1,50.5,145.1,47.2 M194.6,32.3h9l-4.5,10.9h-6.9L188,63.2c-0.5,2.1-0.7,3.7-0.7,5c0,2.8,1.2,3.4,4.1,3.4  c1.5,0,3.2-0.4,4.4-1l-0.1,9.6c-4.6,2-9,2.9-12.4,2.9c-8.9,0-14.1-1.7-14.1-8.7c0-1.2,0.2-2.7,0.5-4.2l5.7-26.9h-4l2.4-10.9h4  c1.1-4.9,2.1-9.4,3.2-12.3l17.1-2.5C196.5,22.9,195.6,27.7,194.6,32.3 M162.7,48.6c0,12.9-7.2,34.4-30.3,34.4  c-11.7,0-18.3-6.4-18.3-17.8c0-12.7,6.9-34.1,30.3-34.1C154.8,31.1,162.7,36.2,162.7,48.6 M108.9,48.6c0,12.9-7.2,34.4-30.3,34.4  c-11.7,0-18.3-6.4-18.3-17.8c0-12.7,6.9-34.1,30.3-34.1C100.9,31.1,108.9,36.2,108.9,48.6 M66.7,15l-4.2,14.1H43.9l-2.4,11.2h15  l-2.9,13.6H38.8l-5.9,27.9H15.7L29.9,15H66.7z M214.6,36.9c1.5-3.7,1.1-7.9-1.1-11.2c-1.1-1.6-2.5-2.9-4.2-3.8  c0.1-0.3,0.2-0.5,0.2-0.8c1.2-3.9,0.3-8.2-2.3-11.3c-2.7-3.1-6.7-4.6-10.8-4l-17.1,2.5c-4.3,0.6-8,3.6-9.5,7.7  c-0.6,1.7-1.2,3.8-1.8,6c-1.5,0.8-2.8,2-3.9,3.4c-5.1-4-11.9-6.2-19.9-6.2c-12.2,0-21.9,4.5-28.9,11.6c-5.2-7.3-13.9-11.6-25-11.6  c-4.9,0-9.3,0.7-13.4,2l0.8-2.8c1.1-3.6,0.4-7.5-1.9-10.5c-2.2-3-5.8-4.8-9.6-4.8H29.9c-5.6,0-10.5,3.9-11.6,9.4L4,79.3  c-0.7,3.5,0.1,7.2,2.4,10c2.3,2.8,5.7,4.4,9.3,4.4h17.1c5.6,0,10.5-3.9,11.6-9.4l3.9-18.4h0c0.3,17.7,12,29.1,30.2,29.1  c11.4,0,21.4-4.1,28.9-11.7c5.2,7.4,13.9,11.7,25,11.7c10.7,0,20.2-3.6,27.5-10.3c1.7,3,4.2,5.5,7.4,7.3c5.2,2.8,11.3,3.2,16.1,3.2  c5.3,0,11.4-1.4,17.1-3.9c4.3-1.9,7.1-6.1,7.1-10.8l0.1-9.6c0-4.1-2-7.9-5.4-10.1c-0.5-0.3-1-0.6-1.4-0.8l1.1-5  c3.6-0.9,6.7-3.5,8.2-7L214.6,36.9z M261.8,47.2c0-3.4-1.2-4.5-3.7-4.5c-6.9,0-9.8,20.7-9.8,24.1c0,3.1,1.1,4.5,3.7,4.5  C258.9,71.3,261.8,50.5,261.8,47.2 M334.3,40.9c0,1.4-0.2,2.9-0.5,4.4l-7.8,36.5h-16.7l6.7-31.6c0.2-1.1,0.4-2,0.4-2.8  c0-1.9-0.8-2.8-2.8-2.8c-2.7,0-4.8,1.3-6.9,4.6l-7,32.6h-16.7l6.6-31.1c1.1-5.2,1.7-8.9,1.7-12.4c0-1.5-0.2-2.9-0.4-4.4l14.8-2.8  c0.4,1.6,0.8,3.4,0.9,5.4c3.8-3.4,9.6-5.4,15-5.4C331.5,31.1,334.3,35.5,334.3,40.9 M279.4,48.6c0,12.9-7.2,34.4-30.3,34.4  c-11.7,0-18.3-6.4-18.3-17.8c0-12.7,6.9-34.1,30.3-34.1C271.5,31.1,279.4,36.2,279.4,48.6 M345.5,47.5c0.5-2.5,0.7-4.6,0.7-6.6  c0-10-6.4-21.7-24.5-21.7c-3.4,0-6.9,0.5-10.2,1.5c-2.3-1.3-5.1-1.8-8-1.3l-14.8,2.8c-2.8,0.5-5.2,2-6.9,4.1c-5.2-4.5-12.3-7-20.9-7  c-27.7,0-42.2,23.1-42.2,46c0,18.1,11.9,29.7,30.2,29.7c8.9,0,17-2.5,23.7-7.3c0.3,0.6,0.7,1.1,1.1,1.6c2.3,2.8,5.7,4.4,9.3,4.4  h16.7c1.7,0,3.3-0.4,4.8-1c1.5,0.7,3.1,1,4.8,1h16.7c5.6,0,10.5-3.9,11.6-9.4l7.8-36.5C345.5,47.6,345.5,47.6,345.5,47.5   M472.8,65.8l4.6-21.6c-0.6-0.5-1.4-0.7-2-0.7c-1.2,0-3.6-0.1-6,2.7c-3.5,4.1-5.7,13.8-5.7,19.9c0,3.4,1,4.8,3.3,4.8  C469,70.8,472.4,67.4,472.8,65.8 M585.1,35.6l-7.4,10.3c-3.9-2.2-8.2-3.4-11.6-3.4c-1.1,0-5.1,0.3-5,3.8c0,1.3,1.1,2.4,5.3,3.4  l4.4,1.1c6.4,1.6,10.3,4.7,10.3,11.9c0,9.3-8.5,20.1-26.2,20.1c-7.1,0-14.5-2.3-20.6-6.1l7.7-11c3.1,2.4,9.4,5.2,15.1,5.2  c2.8,0,6-1.3,6-4.2c0-2.4-1.6-3.1-6.7-4.2l-4.1-1c-6.6-1.5-10-5.7-10-12.1c0-9.3,8.1-18.5,24.1-18.5  C573.4,31.1,578.8,32.5,585.1,35.6 M541.1,32.3l-6.7,13.5c-1.5-1-2.7-1.3-4.6-1.3c-2.9,0-4.7,1.5-6.8,4.7l-7,32.6h-16.7l6.4-30.1  c1.8-8.5,2.5-12.8,1.4-17.8l14.8-2.8c0.6,1.8,0.9,3.5,1,5.6c2.4-2.7,6.9-5.8,12.2-5.8C537.6,30.9,539,31.4,541.1,32.3 M496.9,34.1  c-1.4,3.4-2.9,9.4-3.7,13.5l-3.7,17.8c-0.4,1.6-0.3,5.1,1.9,7.5l-13.5,10.8c-2-1.1-3.4-4-3.7-5.8c-2.2,2.3-7.1,5.5-12.8,5.5  c-10.1,0-14.3-6.3-14.3-16.9s4.2-21.5,10.6-27.9c5.6-5.6,11.7-7.5,20.4-7.5C484.8,31.1,493.2,32.2,496.9,34.1 M443.7,15l-8,66.8  h-16.4l4.1-26.9c0.7-4.2,1.1-7.7,2.3-13.4h-0.1c-1.9,5.7-3.1,9-4.9,12.5l-14.1,27.8H392l-1.3-27c-0.2-3.7-0.1-7.5,0.7-13.4h-0.1  c-1.2,5.9-2.1,9.6-3.3,13.8l-7,26.6h-17.4L384.2,15h20.7l0.9,26.4c0.1,3.7,0.1,7.3-0.5,12.6h0.1c1.7-5.1,3.1-8.3,5.6-13.6L423.1,15  H443.7z M596.6,32.6c-0.9-3.4-3.2-6.2-6.3-7.8c-8.2-4-15.4-5.7-23.9-5.7c-7,0-13.1,1.4-18.1,3.7c-0.7-0.5-1.4-1-2.3-1.4  c-3.3-1.5-6.4-2.5-10.9-2.5c-2.7,0-5.4,0.5-8.1,1.3c-2.2-1-4.7-1.4-7.2-0.9L505,22.2c-1.1,0.2-2.2,0.6-3.2,1.1  c-8.3-3.9-22.3-4.1-23.8-4.1c-6.8,0-15.4,0.9-23.6,6.6l1.1-9.3c0.4-3.4-0.7-6.8-2.9-9.3c-2.3-2.5-5.5-4-8.9-4h-20.6  c-3.6,0-6.9,1.6-9.1,4.2c-2.2-2.6-5.5-4.2-9.1-4.2h-20.7c-5.2,0-9.8,3.4-11.4,8.4l-20.7,66.8c-1.1,3.6-0.5,7.5,1.8,10.6  c2.2,3,5.8,4.8,9.6,4.8H381c2,0,3.8-0.5,5.5-1.4c1.7,0.9,3.5,1.4,5.5,1.4h14.7c2.3,0,4.5-0.7,6.3-1.8c1.9,1.2,4.1,1.8,6.3,1.8h16.4  c3.5,0,6.7-1.5,8.8-4c4.8,3.9,10.9,5.5,16.7,5.5c3.5,0,6.8-0.7,9.8-1.7c0.4,0.3,0.8,0.5,1.3,0.7c1.7,0.9,3.6,1.4,5.5,1.4  c2.7,0,5.3-0.9,7.5-2.6l4.8-3.8c0,0,0,0.1,0.1,0.1c2.3,2.8,5.7,4.4,9.3,4.4H516c4.9,0,9.2-3,11-7.3c0.3,0.2,0.6,0.4,0.9,0.6  c8.2,5.1,17.7,7.9,26.9,7.9c24.8,0,38.2-16.5,38.2-32c0-3.5-0.6-8.4-3.5-13l5.3-7.4C596.8,39.6,597.5,36,596.6,32.6"/>
<script xmlns=""/></svg>