<?xml version="1.0" encoding="utf-8"?>
<!-- Generator: Adobe Illustrator 25.0.0, SVG Export Plug-In . SVG Version: 6.00 Build 0)  -->
<svg version="1.1" id="Capa_1" xmlns="http://www.w3.org/2000/svg" xmlns:xlink="http://www.w3.org/1999/xlink" x="0px" y="0px"
	 viewBox="0 0 1080 520" style="enable-background:new 0 0 1080 520;" xml:space="preserve">
<style type="text/css">
	.st0{fill:#FFFFFF;}
</style>
<path class="st0" d="M123.85,243.86h39.3v-32.04H49.52v32.04h37.81v94.16h36.52V243.86z M250.71,255.18
	c0,11.75-6.62,17.3-17.51,17.3h-13.88v-32.04h11.11C243.66,240.45,250.71,243.44,250.71,255.18 M266.3,288.29
	c11.1-5.56,22-18.16,22-36.1c0-30.33-22-40.37-54.89-40.37h-50.83v142.03h36.73v-53.18h10.04c5.56,0,8.97,2.78,11.32,8.11
	l19.65,45.06h39.3l-23.92-54.46C273.56,294.27,270.15,290.21,266.3,288.29 M355.35,201.02l54.31-14.55l-7.97-29.74l-54.31,14.55
	L355.35,201.02z M316.7,353.86h94.4v-32.04h-57.67v-24.35h44.47v-32.04h-44.47v-21.57h56.17v-32.04H316.7V353.86z M518.96,353.86
	h32.46V211.83H514.9v77.32h-0.43l-46.77-77.32h-33.96v126.2h36.31v-62.98h0.64L518.96,353.86z M661.64,281.67
	c0,29.26-11.97,43.79-30.97,43.79h-14.31v-85.01h11.97C646.04,240.45,661.64,248.78,661.64,281.67 M698.37,278.04
	c0-45.28-26.48-66.21-68.99-66.21h-49.76v142.03h50.62C665.9,353.86,698.37,333.56,698.37,278.04 M720.58,338.02h36.73V211.83
	h-36.73V338.02z M871.79,257.54l26.06-18.8c-13.67-21.15-32.46-29.47-51.47-29.47c-31.82,0-66.85,18.58-66.85,74.75
	c0,47.63,25.85,72.4,65.78,72.4c19.65,0,35.03-6.19,50.41-20.29l-18.58-23.92c-9.18,8.54-19.01,14.1-29.9,14.1
	c-20.72,0-29.9-17.51-29.9-44.42c0-27.98,11.32-42.08,27.34-42.08C854.92,239.8,863.46,246,871.79,257.54 M993.11,283.8
	c0,21.57-5.77,42.29-25.42,42.29c-22.64,0-26.91-24.56-26.91-44.42c0-21.15,6.83-41.86,26.06-41.86
	C988.4,239.8,993.11,265.86,993.11,283.8 M1030.48,283.16c0-54.25-28.62-73.9-61.51-73.9c-30.97,0-66,19.22-66,73.9
	c0,48.27,23.5,73.26,63.22,73.26C1004.85,356.42,1030.48,331.64,1030.48,283.16"/>
</svg>
