<?xml version="1.0" standalone="no"?>
<!DOCTYPE svg PUBLIC "-//W3C//DTD SVG 20010904//EN"
 "http://www.w3.org/TR/2001/REC-SVG-20010904/DTD/svg10.dtd">
<svg version="1.0" xmlns="http://www.w3.org/2000/svg"
 width="4091.000000pt" height="836.000000pt" viewBox="0 0 4091.000000 836.000000"
 preserveAspectRatio="xMidYMid meet">

<g transform="translate(0.000000,836.000000) scale(0.100000,-0.100000)"
fill="#000000" stroke="none">
<path d="M13555 8037 c-616 -165 -1121 -301 -1123 -303 -3 -2 326 -1236 331
-1239 5 -4 2246 601 2253 608 10 10 -318 1237 -331 1236 -5 -1 -514 -136
-1130 -302z"/>
<path d="M32975 6144 c-412 -34 -799 -141 -1124 -310 -720 -375 -1176 -1039
-1345 -1954 -90 -490 -94 -1136 -10 -1625 105 -615 343 -1117 704 -1489 394
-406 897 -641 1550 -723 191 -24 655 -24 835 0 526 70 946 241 1369 557 138
102 315 251 315 265 1 7 -738 967 -764 993 -2 2 -41 -28 -87 -68 -292 -254
-558 -403 -851 -476 -126 -32 -376 -44 -508 -24 -439 64 -750 354 -914 853
-83 252 -123 519 -132 877 -15 599 89 1071 308 1405 69 105 224 258 318 313
168 99 312 137 516 136 117 -1 156 -5 240 -28 204 -53 406 -178 594 -366 82
-82 222 -246 276 -323 12 -17 55 11 552 369 296 213 540 389 542 391 11 8
-108 179 -224 320 -90 109 -282 301 -380 379 -338 270 -734 443 -1165 509
-102 16 -500 28 -615 19z"/>
<path d="M38040 6139 c-360 -36 -680 -125 -985 -274 -755 -370 -1236 -1048
-1409 -1985 -51 -278 -61 -406 -61 -815 0 -389 7 -498 46 -765 109 -736 400
-1325 842 -1705 466 -402 1091 -596 1842 -572 621 20 1105 175 1535 491 113
82 316 279 403 389 206 260 375 595 477 942 223 765 210 1857 -32 2614 -129
405 -336 759 -598 1022 -349 350 -775 556 -1325 639 -161 25 -573 35 -735 19z
m327 -1270 c550 -75 881 -604 954 -1524 15 -188 6 -614 -15 -783 -73 -558
-240 -924 -512 -1118 -213 -152 -509 -198 -797 -124 -444 115 -717 535 -812
1250 -8 63 -20 215 -27 337 -33 632 77 1192 303 1538 93 144 235 273 374 343
152 76 349 106 532 81z"/>
<path d="M20 5375 l0 -665 788 -2 787 -3 3 -1957 2 -1958 760 0 760 0 0 1960
0 1960 815 0 815 0 0 665 0 665 -2365 0 -2365 0 0 -665z"/>
<path d="M5560 3085 l0 -2955 765 0 765 0 0 1105 0 1105 253 0 c268 0 311 -6
403 -51 64 -32 154 -126 195 -202 18 -34 219 -487 445 -1007 l413 -945 821 -3
820 -2 -13 32 c-68 160 -997 2267 -1020 2313 -73 145 -181 275 -290 346 l-58
38 73 42 c328 188 582 487 728 853 113 285 140 679 69 1029 -153 760 -739
1161 -1823 1247 -78 6 -610 10 -1337 10 l-1209 0 0 -2955z m2255 1754 c346
-41 516 -169 571 -429 22 -105 14 -326 -16 -430 -73 -254 -251 -406 -530 -450
-36 -5 -219 -10 -407 -10 l-343 0 0 665 0 665 318 0 c174 0 358 -5 407 -11z"/>
<path d="M11150 3085 l0 -2955 1965 0 1965 0 0 665 0 665 -1200 0 -1200 0 2
507 3 508 923 3 922 2 0 665 0 665 -925 0 -925 0 0 450 0 450 1170 0 1170 0 0
665 0 665 -1935 0 -1935 0 0 -2955z"/>
<path d="M16030 3415 l0 -2625 755 0 755 0 0 1310 c0 1074 2 1310 13 1310 7 0
465 -738 1018 -1640 l1004 -1640 678 0 677 0 0 2955 0 2955 -760 0 -760 0 0
-1606 c0 -1280 -3 -1605 -12 -1602 -7 3 -449 725 -982 1606 l-969 1602 -709 0
-708 0 0 -2625z"/>
<path d="M22110 3085 l0 -2955 1153 0 c688 0 1196 4 1262 10 713 65 1274 308
1705 740 455 454 709 1059 802 1905 18 161 18 801 0 950 -78 666 -287 1158
-651 1538 -424 441 -1023 691 -1814 756 -80 7 -564 11 -1293 11 l-1164 0 0
-2955z m2373 1736 c261 -53 456 -153 615 -313 212 -215 329 -483 393 -900 27
-173 37 -564 20 -772 -63 -774 -353 -1275 -841 -1451 -172 -62 -220 -67 -642
-72 l-388 -5 0 1772 0 1772 368 -4 c329 -4 378 -7 475 -27z"/>
<path d="M27980 3415 l0 -2625 765 0 765 0 0 2625 0 2625 -765 0 -765 0 0
-2625z"/>
</g>
</svg>
