<?xml version="1.0" encoding="utf-8"?>
<!-- Generator: Adobe Illustrator 25.0.0, SVG Export Plug-In . SVG Version: 6.00 Build 0)  -->
<svg version="1.1" id="Capa_1" xmlns="http://www.w3.org/2000/svg" xmlns:xlink="http://www.w3.org/1999/xlink" x="0px" y="0px"
	 viewBox="0 0 512 512" style="enable-background:new 0 0 512 512;" xml:space="preserve">
<style type="text/css">
	.st0{fill:#E42313;}
	.st1{fill:#FFFFFF;}
</style>
<circle class="st0" cx="256" cy="256" r="256"/>
<path class="st1" d="M228.74,252.67c0-6.91-2.57-9.28-7.7-9.28c-14.22,0-20.14,42.66-20.14,49.76c0,6.32,2.17,9.28,7.7,9.28
	C222.82,302.44,228.74,259.58,228.74,252.67 M444.01,186.31l-16.59,137.65h-33.77l8.5-55.49c1.38-8.69,2.37-15.8,4.74-27.65h-0.2
	c-3.95,11.65-6.32,18.56-10.07,25.87l-29.03,57.27h-30.21l-2.77-55.69c-0.39-7.7-0.2-15.4,1.38-27.65h-0.2
	c-2.57,12.25-4.34,19.75-6.72,28.44l-14.42,54.9h-35.94l42.66-137.65h42.66l1.78,54.51c0.2,7.7,0.2,15.01-0.99,26.07h0.2
	c3.56-10.47,6.32-17.18,11.45-28.05l25.08-52.53H444.01z M265.08,255.63c0,26.66-14.81,70.9-62.41,70.9
	c-24.09,0-37.72-13.23-37.72-36.73c0-26.27,14.22-70.31,62.41-70.31C248.69,219.49,265.08,229.96,265.08,255.63 M174.04,186.31
	l-8.69,29.03h-38.12l-4.94,23.11h31.01l-5.93,28.04h-30.81l-12.24,57.47H68.97L98.2,186.31H174.04z M464.21,168.41
	c-5.11-5.78-12.47-9.08-20.18-9.08h-42.46c-7.13,0-13.82,2.8-18.76,7.59c-4.86-4.71-11.48-7.59-18.76-7.59h-42.66
	c-11.82,0-22.27,7.7-25.77,18.99L282.69,220c-10.75-17.34-30.19-27.49-55.33-27.49c-10.31,0-19.74,1.54-28.31,4.29l0.83-2.76
	c2.44-8.17,0.89-17.01-4.21-23.84c-5.09-6.84-13.11-10.87-21.64-10.87H98.2c-12.74,0-23.74,8.91-26.39,21.37L42.59,318.36
	c-1.69,7.96,0.3,16.26,5.42,22.58c5.12,6.32,12.82,9.99,20.96,9.99h35.35c12.73,0,23.73-8.9,26.38-21.35l7.43-34.89
	c2.14,35.38,27.52,58.82,64.54,58.82c19.87,0,37.73-5.9,52.23-16.92c0.62,1.16,1.29,2.31,2.09,3.38
	c5.08,6.9,13.14,10.97,21.71,10.97h35.95c4.02,0,7.88-0.89,11.35-2.5c3.46,1.61,7.31,2.5,11.36,2.5h30.22
	c4.65,0,9.12-1.19,13.04-3.35c3.95,2.18,8.42,3.35,13.04,3.35h33.77c13.65,0,25.15-10.2,26.78-23.75l16.59-137.65
	C471.73,181.87,469.33,174.18,464.21,168.41"/>
</svg>
